<svg width="1920" height="1080" viewBox="0 0 1920 1080" xmlns="http://www.w3.org/2000/svg"><rect width="1920" height="1080" fill="#ffffff"/><path d="M809,1119.9999999999998C801.5,1197.1499485898942,730.583925898513,1265.7340715084347,673.0920192399075,1371.440388078475C615.6001125813019,1477.1467046485154,560.0858403544703,1738.89198987302,464.04856004836694,1754.2378994202422C368.0112797422635,1769.5838089674644,193.30735195467787,1491.0665214639998,96.8683374032871,1463.5158453618087C0.42932285189634456,1435.9651692596176,-19.496562459649695,1565.7961514206313,-114.58552725997762,1588.933842807096C-209.67449206030557,1612.0715341935606,-378.0619787637536,1653.526653275091,-473.6654513986805,1602.3419936805967C-569.2689240336074,1551.1573340861025,-654.9495444577292,1393.130675556175,-688.206363069539,1281.825885240131C-721.4631816813487,1170.5210949240868,-703.1769133930745,1044.041231604453,-673.2063630695391,934.5132517843319C-643.2358127460036,824.9852719642107,-592.5342238422738,713.1205786191359,-508.38306112832595,624.6580063194037C-424.23189841437807,536.1954340196716,-270.39058735483115,450.9360949680963,-168.2993867858519,403.73781798593893C-66.20818621687265,356.53954100378155,2.606151146513099,310.94467077405596,104.16414228554954,341.46834442645945C205.722133424586,371.99201807886294,338.7272472226405,492.36780121491853,441.0485600483667,586.87985990036C543.369872874093,681.3919185858015,656.7667792479682,819.6873398558349,718.0920192399071,908.5406965391082C779.4172592318461,997.3940532223816,816.5,1042.8500514101054,809,1119.9999999999998C801.5,1197.1499485898942,730.583925898513,1265.7340715084347,673.0920192399075,1371.440388078475" fill="#0984e3"/></svg>